HIERARCHY
ROOT hip
{
  OFFSET 0 0 0
  CHANNELS 6 Xposition Yposition Zposition Zrotation Yrotation Xrotation
  JOINT abdomen
  {
    OFFSET 0 20.6881 -0.73152
    CHANNELS 3 Zrotation Xrotation Yrotation
    JOINT chest
    {
      OFFSET 0 11.7043 -0.48768
      CHANNELS 3 Zrotation Xrotation Yrotation
      JOINT neck
      {
        OFFSET 0 22.1894 -2.19456
        CHANNELS 3 Zrotation Xrotation Yrotation
        JOINT head
        {
          OFFSET -0.24384 7.07133 1.2192
          CHANNELS 3 Zrotation Xrotation Yrotation
          JOINT leftEye
          {
            OFFSET 4.14528 8.04674 8.04672
            CHANNELS 3 Zrotation Xrotation Yrotation
            End Site
            {
              OFFSET 1 0 0
            }
          }
          JOINT rightEye
          {
            OFFSET -3.6576 8.04674 8.04672
            CHANNELS 3 Zrotation Xrotation Yrotation
            End Site
            {
              OFFSET 1 0 0
            }
          }
        }
      }
      JOINT rCollar
      {
        OFFSET -2.68224 19.2634 -4.8768
        CHANNELS 3 Zrotation Xrotation Yrotation
        JOINT rShldr
        {
          OFFSET -8.77824 -1.95073 1.46304
          CHANNELS 3 Zrotation Xrotation Yrotation
          JOINT rForeArm
          {
            OFFSET -28.1742 -1.7115 0.48768
            CHANNELS 3 Zrotation Xrotation Yrotation
            JOINT rHand
            {
              OFFSET -22.5879 0.773209 7.07136
              CHANNELS 3 Zrotation Xrotation Yrotation
              JOINT rThumb1
              {
                OFFSET -1.2192 -0.487915 3.41376
                CHANNELS 3 Zrotation Xrotation Yrotation
                JOINT rThumb2
                {
                  OFFSET -3.37035 -0.52449 3.41376
                  CHANNELS 3 Zrotation Xrotation Yrotation
                  End Site
                  {
                    OFFSET -1.78271 -1.18214 1.43049
                  }
                }
              }
              JOINT rIndex1
              {
                OFFSET -7.75947 0.938293 5.60832
                CHANNELS 3 Zrotation Xrotation Yrotation
                JOINT rIndex2
                {
                  OFFSET -2.54057 -0.884171 1.56538
                  CHANNELS 3 Zrotation Xrotation Yrotation
                  End Site
                  {
                    OFFSET -1.62519 -0.234802 1.16502
                  }
                }
              }
              JOINT rMid1
              {
                OFFSET -8.24714 1.18213 3.41376
                CHANNELS 3 Zrotation Xrotation Yrotation
                JOINT rMid2
                {
                  OFFSET -3.10165 -0.590103 1.0647
                  CHANNELS 3 Zrotation Xrotation Yrotation
                  End Site
                  {
                    OFFSET -2.48547 -0.328903 0.83742
                  }
                }
              }
              JOINT rRing1
              {
                OFFSET -8.82822 0.546677 1.51678
                CHANNELS 3 Zrotation Xrotation Yrotation
                JOINT rRing2
                {
                  OFFSET -2.60934 -0.819778 -0.0198488
                  CHANNELS 3 Zrotation Xrotation Yrotation
                  End Site
                  {
                    OFFSET -2.33842 -0.294052 0.168128
                  }
                }
              }
              JOINT rPinky1
              {
                OFFSET -8.27202 -0.0477905 -0.4584
                CHANNELS 3 Zrotation Xrotation Yrotation
                JOINT rPinky2
                {
                  OFFSET -1.82734 -0.647385 -0.700984
                  CHANNELS 3 Zrotation Xrotation Yrotation
                  End Site
                  {
                    OFFSET -1.69225 -0.51767 -0.607171
                  }
                }
              }
            }
          }
        }
      }
      JOINT lCollar
      {
        OFFSET 2.68224 19.2634 -4.8768
        CHANNELS 3 Zrotation Xrotation Yrotation
        JOINT lShldr
        {
          OFFSET 8.77824 -1.95073 1.46304
          CHANNELS 3 Zrotation Xrotation Yrotation
          JOINT lForeArm
          {
            OFFSET 28.1742 -1.7115 0.48768
            CHANNELS 3 Zrotation Xrotation Yrotation
            JOINT lHand
            {
              OFFSET 22.5879 0.773209 7.07136
              CHANNELS 3 Zrotation Xrotation Yrotation
              JOINT lThumb1
              {
                OFFSET 1.2192 -0.487915 3.41376
                CHANNELS 3 Zrotation Xrotation Yrotation
                JOINT lThumb2
                {
                  OFFSET 3.37035 -0.52449 3.41376
                  CHANNELS 3 Zrotation Xrotation Yrotation
                  End Site
                  {
                    OFFSET 1.78271 -1.18214 1.43049
                  }
                }
              }
              JOINT lIndex1
              {
                OFFSET 7.75947 0.938293 5.60832
                CHANNELS 3 Zrotation Xrotation Yrotation
                JOINT lIndex2
                {
                  OFFSET 2.54057 -0.884171 1.56538
                  CHANNELS 3 Zrotation Xrotation Yrotation
                  End Site
                  {
                    OFFSET 1.62519 -0.234802 1.16502
                  }
                }
              }
              JOINT lMid1
              {
                OFFSET 8.24714 1.18213 3.41376
                CHANNELS 3 Zrotation Xrotation Yrotation
                JOINT lMid2
                {
                  OFFSET 3.10165 -0.590103 1.0647
                  CHANNELS 3 Zrotation Xrotation Yrotation
                  End Site
                  {
                    OFFSET 2.48547 -0.328903 0.83742
                  }
                }
              }
              JOINT lRing1
              {
                OFFSET 8.82822 0.546677 1.51678
                CHANNELS 3 Zrotation Xrotation Yrotation
                JOINT lRing2
                {
                  OFFSET 2.60934 -0.819778 -0.0198488
                  CHANNELS 3 Zrotation Xrotation Yrotation
                  End Site
                  {
                    OFFSET 2.33842 -0.294052 0.168128
                  }
                }
              }
              JOINT lPinky1
              {
                OFFSET 8.27202 -0.0477905 -0.4584
                CHANNELS 3 Zrotation Xrotation Yrotation
                JOINT lPinky2
                {
                  OFFSET 1.82734 -0.647385 -0.700984
                  CHANNELS 3 Zrotation Xrotation Yrotation
                  End Site
                  {
                    OFFSET 1.69225 -0.51767 -0.607171
                  }
                }
              }
            }
          }
        }
      }
    }
  }
  JOINT rButtock
  {
    OFFSET -8.77824 4.35084 1.2192
    CHANNELS 3 Zrotation Xrotation Yrotation
    JOINT rThigh
    {
      OFFSET 0 -1.70687 -2.19456
      CHANNELS 3 Zrotation Xrotation Yrotation
      JOINT rShin
      {
        OFFSET 0 -36.8199 0.73152
        CHANNELS 3 Zrotation Xrotation Yrotation
        JOINT rFoot
        {
          OFFSET 0.73152 -45.1104 -5.12064
          CHANNELS 3 Zrotation Xrotation Yrotation
          End Site
          {
            OFFSET -1.1221 -3.69964 12.103
          }
        }
      }
    }
  }
  JOINT lButtock
  {
    OFFSET 8.77824 4.35084 1.2192
    CHANNELS 3 Zrotation Xrotation Yrotation
    JOINT lThigh
    {
      OFFSET 0 -1.70687 -2.19456
      CHANNELS 3 Zrotation Xrotation Yrotation
      JOINT lShin
      {
        OFFSET 0 -36.8199 0.73152
        CHANNELS 3 Zrotation Xrotation Yrotation
        JOINT lFoot
        {
          OFFSET -0.73152 -45.1104 -5.12064
          CHANNELS 3 Zrotation Xrotation Yrotation
          End Site
          {
            OFFSET 1.1221 -3.69964 12.103
          }
        }
      }
    }
  }
}
MOTION
Frames:	8
Frame Time:	0.00833333
4.3041 82.4855 56.8881 0.0 0.0 0.0 -4.35905 0.00629587 -0.117467 -1.2017 0.0324832 -0.2077 1.05736e-13 7.95139e-16 -2.98177e-16 3.1608e-13 9.54166e-15 -1.44274e-15 -0.0 0.0 0.0 -0.0 0.0 0.0 5.20824e-14 7.66796e-17 -4.96962e-17 1.1063e-12 2.00027e-15 -7.95139e-16 1.89421e-11 -5.64051e-12 -2.3218e-13 2.1761e-10 6.05272e-12 -6.77458e-13 5.13152e-10 8.89549e-13 -2.03237e-12 8.86186e-10 1.52985e-12 -3.52564e-12 5.13154e-10 8.8817e-13 -2.03874e-12 7.73091 5.47488 0.417314 5.13151e-10 8.89363e-13 -2.02919e-12 2.90554 0.965183 0.102902 5.1316e-10 8.89164e-13 -2.03078e-12 10.2786 0.731801 0.0259123 5.13145e-10 8.94133e-13 -2.02601e-12 2.22167 -0.733487 -0.20892 5.20842e-14 7.24089e-17 -1.49089e-16 1.10244e-12 1.47225e-15 -2.38542e-15 1.90766e-11 5.72579e-12 -2.92611e-13 2.17492e-10 -5.34249e-12 -6.10667e-13 5.13198e-10 8.34553e-13 -2.00693e-12 8.86285e-10 1.44397e-12 -3.47158e-12 5.13192e-10 8.36486e-13 -1.99103e-12 -7.73091 5.47488 -0.417314 5.13199e-10 8.34399e-13 -2.01011e-12 -2.90554 0.965183 -0.102902 5.13187e-10 8.34597e-13 -2.00216e-12 -10.2786 0.731801 -0.0259123 5.13202e-10 8.36088e-13 -2.01011e-12 -2.22167 -0.733487 0.20892 -2.03217e-16 0.0 -3.88251e-19 -2.89211 -1.94436 0.0304807 -0.00794475 -2.07875 -0.0648464 -0.418344 4.00219 0.126537 2.03217e-16 0.0 3.88251e-19 -3.72523 -11.2507 0.483785 -0.0143135 14.7726 -0.388801 0.544678 -3.54245 0.0125231
1.99649 82.1997 54.6409 -9.2832 -2.5827 9.9988 -2.15928 -2.69784 1.067 -2.24529 -2.22258 -0.0191071 -1.87327 3.39005 -3.02531 5.58143 -3.23357 -5.43928 -0.0 0.0 0.0 -0.0 0.0 0.0 1.30674e-13 1.56761e-16 1.26822e-14 23.1864 -6.20841 -3.05399 -3.0246 -1.1998 4.89684 0.240671 10.9207 1.43609 4.0305e-10 1.20033e-10 -7.2715e-10 6.74286e-10 2.18221e-10 -1.25481e-09 4.03052e-10 1.20032e-10 -7.27158e-10 7.73091 5.47488 0.417314 4.03049e-10 1.20032e-10 -7.27148e-10 2.90554 0.965183 0.102902 4.03057e-10 1.20033e-10 -7.2715e-10 10.2786 0.731801 0.0259123 4.03044e-10 1.20038e-10 -7.27147e-10 2.22167 -0.733487 -0.20892 1.30684e-13 1.5039e-16 1.26147e-14 -22.311 -8.05406 2.43661 2.56969 -0.961378 -4.20973 -0.212688 10.2612 -1.36001 -2.99559e-10 -1.93547e-10 2.93955e-10 -5.06074e-10 -3.29292e-10 5.27682e-10 -2.99564e-10 -1.93545e-10 2.93968e-10 -7.73091 5.47488 -0.417314 -2.99558e-10 -1.93548e-10 2.93954e-10 -2.90554 0.965183 -0.102902 -2.99569e-10 -1.93548e-10 2.93959e-10 -10.2786 0.731801 -0.0259123 -2.99555e-10 -1.93547e-10 2.93951e-10 -2.22167 -0.733487 0.20892 -2.03217e-16 0.0 -3.88251e-19 -1.16232 -2.86028 7.72177 0.00747625 -1.86897 0.0490721 -0.985053 1.07294 -7.60928 2.03217e-16 0.0 3.88251e-19 -3.52482 -10.1248 -12.5459 0.000633916 14.1586 -0.158468 1.97947 -11.9494 15.4102
1.96314 82.2028 54.6358 -9.4354 -2.5801 10.0203 0.261936 -5.5431 2.33272 -3.33457 -4.6134 0.182593 -3.44017 6.94419 -6.26006 10.8057 -6.56042 -11.2505 -0.0 0.0 0.0 -0.0 0.0 0.0 2.17903e-13 8.32229e-16 2.59756e-14 46.9809 -12.7021 -6.40739 -6.00873 -2.44397 10.0948 -0.144098 22.4243 3.1362 2.85015e-10 2.5216e-10 -1.523e-09 4.4657e-10 4.58491e-10 -2.62803e-09 2.85018e-10 2.52159e-10 -1.52301e-09 7.73091 5.47488 0.417314 2.85013e-10 2.52159e-10 -1.523e-09 2.90554 0.965183 0.102902 2.8502e-10 2.52161e-10 -1.52301e-09 10.2786 0.731801 0.0259123 2.85009e-10 2.52166e-10 -1.523e-09 2.22167 -0.733487 -0.20892 2.17921e-13 8.23359e-16 2.59445e-14 -45.1105 -16.5208 5.17712 5.13176 -1.95971 -8.66165 0.126621 21.0936 -2.95141 -1.18779e-09 -4.07447e-10 6.13033e-10 -2.02786e-09 -6.93386e-10 1.10076e-09 -1.1878e-09 -4.07443e-10 6.13044e-10 -7.73091 5.47488 -0.417314 -1.18779e-09 -4.07447e-10 6.13034e-10 -2.90554 0.965183 -0.102902 -1.1878e-09 -4.07448e-10 6.13036e-10 -10.2786 0.731801 -0.0259123 -1.18779e-09 -4.07447e-10 6.13029e-10 -2.22167 -0.733487 0.20892 -2.03217e-16 0.0 -3.88251e-19 0.917399 -3.72885 15.9025 0.0228599 -1.64866 0.169661 -2.43884 -1.93438 -15.822 2.03217e-16 0.0 3.88251e-19 -2.77377 -8.47523 -26.2089 0.0220122 13.5139 0.0840842 8.37671 -18.5142 32.8795
1.95149 82.2043 54.6368 -9.492 -2.5571 10.0101 2.57827 -8.09289 3.46697 -4.28775 -6.73259 0.360608 -4.53661 10.0559 -9.20262 14.9094 -9.34961 -16.5174 -0.0 0.0 0.0 -0.0 0.0 0.0 2.87856e-13 3.16924e-16 3.81461e-14 67.4923 -18.4078 -9.60388 -8.46506 -3.4944 14.7153 -1.18039 32.6718 5.02723 1.82847e-10 3.58319e-10 -2.17738e-09 2.50485e-10 6.51603e-10 -3.75737e-09 1.8285e-10 3.58319e-10 -2.1774e-09 7.73091 5.47488 0.417314 1.82844e-10 3.58319e-10 -2.17739e-09 2.90554 0.965183 0.102902 1.82851e-10 3.58321e-10 -2.17739e-09 10.2786 0.731801 0.0259123 1.82841e-10 3.58326e-10 -2.17739e-09 2.22167 -0.733487 -0.20892 2.87883e-13 3.06351e-16 3.81422e-14 -64.7195 -23.9789 7.92552 7.28864 -2.82193 -12.643 1.02418 30.7083 -4.67087 -1.92507e-09 -5.82311e-10 8.85879e-10 -3.29079e-09 -9.90765e-10 1.58999e-09 -1.92508e-09 -5.82307e-10 8.85887e-10 -7.73091 5.47488 -0.417314 -1.92507e-09 -5.82312e-10 8.85882e-10 -2.90554 0.965183 -0.102902 -1.92508e-09 -5.82313e-10 8.85881e-10 -10.2786 0.731801 -0.0259123 -1.92507e-09 -5.82313e-10 8.85873e-10 -2.22167 -0.733487 0.20892 -2.03217e-16 0.0 -3.88251e-19 3.00976 -4.38805 23.1471 0.035815 -1.44941 0.276834 -4.43429 -4.37558 -23.1477 2.03217e-16 0.0 3.88251e-19 -1.53239 -6.76746 -38.306 0.045725 12.9301 0.298504 17.3703 -20.6756 49.3015
1.93595 82.2074 54.6382 -9.5681 -2.5296 10.0008 4.39262 -9.91694 4.24303 -4.9332 -8.17292 0.476647 -5.22643 12.1708 -11.2936 17.5112 -11.1319 -20.2313 -0.0 0.0 0.0 -0.0 0.0 0.0 3.14617e-13 -3.17531e-15 4.75095e-14 81.2813 -22.3511 -11.9899 -10.0354 -4.16292 17.8678 -2.44617 39.862 6.73931 1.20347e-10 3.9956e-10 -2.47808e-09 1.33475e-10 7.2682e-10 -4.27698e-09 1.2035e-10 3.9956e-10 -2.4781e-09 7.73091 5.47488 0.417314 1.20344e-10 3.99559e-10 -2.47809e-09 2.90554 0.965183 0.102902 1.2035e-10 3.99562e-10 -2.47809e-09 10.2786 0.731801 0.0259123 1.20342e-10 3.99567e-10 -2.47809e-09 2.22167 -0.733487 -0.20892 3.14656e-13 -3.1856e-15 4.75095e-14 -77.9683 -29.0891 10.11 8.72694 -3.40286 -15.4347 2.08275 37.3489 -6.157 -2.28497e-09 -6.5959e-10 1.04314e-09 -3.90659e-09 -1.12136e-09 1.86959e-09 -2.28498e-09 -6.59585e-10 1.04315e-09 -7.73091 5.47488 -0.417314 -2.28497e-09 -6.5959e-10 1.04315e-09 -2.90554 0.965183 -0.102902 -2.28498e-09 -6.59591e-10 1.04314e-09 -10.2786 0.731801 -0.0259123 -2.28497e-09 -6.59591e-10 1.04314e-09 -2.22167 -0.733487 0.20892 -2.03217e-16 0.0 -3.88251e-19 4.64741 -4.79025 28.0184 0.0444439 -1.30283 0.350515 -6.14939 -5.8583 -28.1464 2.03217e-16 0.0 3.88251e-19 -0.269907 -5.52984 -46.7043 0.0647223 12.4987 0.445084 24.4396 -19.5541 60.4799
1.90118 82.2099 54.6225 -9.7208 -2.5137 10.0323 5.41611 -10.7588 4.52004 -5.17651 -8.64524 0.509476 -5.69154 12.969 -12.121 18.5683 -11.7397 -21.6743 -0.0 0.0 0.0 -0.0 0.0 0.0 2.74165e-13 -1.51219e-14 5.90988e-14 86.3702 -24.0529 -12.946 -10.5364 -4.35875 18.9243 -3.14778 42.8995 7.60145 1.07234e-10 3.44103e-10 -2.242e-09 1.17867e-10 6.25321e-10 -3.87114e-09 1.07237e-10 3.44103e-10 -2.24201e-09 7.73091 5.47488 0.417314 1.07231e-10 3.44102e-10 -2.242e-09 2.90554 0.965183 0.102902 1.07238e-10 3.44105e-10 -2.242e-09 10.2786 0.731801 0.0259123 1.0723e-10 3.4411e-10 -2.24201e-09 2.22167 -0.733487 -0.20892 2.74229e-13 -1.51283e-14 5.90666e-14 -83.1711 -31.0112 11.0315 9.28519 -3.63001 -16.5496 2.61393 39.8946 -6.82253 -2.06912e-09 -5.8722e-10 1.0422e-09 -3.53447e-09 -9.95628e-10 1.86063e-09 -2.06913e-09 -5.87216e-10 1.0422e-09 -7.73091 5.47488 -0.417314 -2.06912e-09 -5.87221e-10 1.0422e-09 -2.90554 0.965183 -0.102902 -2.06913e-09 -5.87221e-10 1.0422e-09 -10.2786 0.731801 -0.0259123 -2.06912e-09 -5.87221e-10 1.04219e-09 -2.22167 -0.733487 0.20892 -2.03217e-16 0.0 -3.88251e-19 5.46547 -5.00897 29.5018 0.0478119 -1.22784 0.377102 -6.78703 -6.34143 -29.7609 2.03217e-16 0.0 3.88251e-19 0.488283 -5.06984 -50.0015 0.0724235 12.2772 0.497253 27.0686 -18.4376 64.6095
1.78931 82.2176 54.6787 -10.3022 -2.173 10.2479 5.84785 -10.9006 4.43309 -5.1347 -8.42701 0.482077 -6.07709 12.849 -12.0216 18.6458 -11.5744 -21.4631 -0.0 0.0 0.0 -0.0 0.0 0.0 1.86025e-13 -3.29033e-14 7.19849e-14 85.4303 -24.1969 -12.7857 -10.3112 -4.23519 18.4813 -3.14555 42.9963 7.61766 1.2969e-10 2.19853e-10 -1.62447e-09 1.75133e-10 3.98151e-10 -2.8077e-09 1.29693e-10 2.19851e-10 -1.62448e-09 7.73091 5.47488 0.417314 1.29687e-10 2.19852e-10 -1.62447e-09 2.90554 0.965183 0.102902 1.29695e-10 2.19854e-10 -1.62448e-09 10.2786 0.731801 0.0259123 1.29688e-10 2.1986e-10 -1.62448e-09 2.22167 -0.733487 -0.20892 1.86122e-13 -3.29033e-14 7.18948e-14 -82.8585 -30.7013 10.9043 9.24426 -3.61648 -16.4645 2.53889 39.536 -6.72699 -1.44428e-09 -4.0858e-10 9.28078e-10 -2.4606e-09 -6.87895e-10 1.6453e-09 -1.44428e-09 -4.08577e-10 9.28082e-10 -7.73091 5.47488 -0.417314 -1.44427e-09 -4.0858e-10 9.28076e-10 -2.90554 0.965183 -0.102902 -1.44428e-09 -4.0858e-10 9.28076e-10 -10.2786 0.731801 -0.0259123 -1.44427e-09 -4.08579e-10 9.28069e-10 -2.22167 -0.733487 0.20892 -2.03217e-16 0.0 -3.88251e-19 5.65367 -5.13857 28.5644 0.0476168 -1.2041 0.370063 -6.52188 -6.20356 -28.9393 2.03217e-16 0.0 3.88251e-19 0.763968 -5.16909 -49.6662 0.0708839 12.2058 0.482254 26.5272 -18.4242 64.1104
1.76333 82.2182 54.7141 -10.4346 -2.0756 10.3129 6.00938 -10.7229 4.16272 -4.95534 -7.96094 0.421671 -6.43366 12.3584 -11.5325 18.3334 -11.0967 -20.5526 -0.0 0.0 0.0 -0.0 0.0 0.0 8.95996e-14 -4.61598e-14 7.55405e-14 82.1033 -23.602 -12.1569 -9.81131 -3.994 17.4803 -2.82919 41.8334 7.25872 1.76211e-10 7.73843e-11 -9.20983e-10 2.76432e-10 1.39376e-10 -1.59612e-09 1.76214e-10 7.73814e-11 -9.20996e-10 7.73091 5.47488 0.417314 1.76209e-10 7.73831e-11 -9.2099e-10 2.90554 0.965183 0.102902 1.76218e-10 7.73855e-11 -9.20993e-10 10.2786 0.731801 0.0259123 1.76211e-10 7.73907e-11 -9.21e-10 2.22167 -0.733487 -0.20892 8.97205e-14 -4.61537e-14 7.53879e-14 -80.3364 -29.5579 10.3797 8.96656 -3.50823 -15.9039 2.22336 38.0034 -6.32732 -7.31704e-10 -2.08274e-10 7.62914e-10 -1.2371e-09 -3.43881e-10 1.33959e-09 -7.31709e-10 -2.08272e-10 7.62917e-10 -7.73091 5.47488 -0.417314 -7.31702e-10 -2.08275e-10 7.62909e-10 -2.90554 0.965183 -0.102902 -7.31711e-10 -2.08274e-10 7.62912e-10 -10.2786 0.731801 -0.0259123 -7.31699e-10 -2.08272e-10 7.62904e-10 -2.22167 -0.733487 0.20892 -2.03217e-16 0.0 -3.88251e-19 5.57059 -5.20696 26.7392 0.0459863 -1.20429 0.349932 -5.9316 -5.81445 -27.2125 2.03217e-16 0.0 3.88251e-19 0.829255 -5.48418 -47.8677 0.0655698 12.2006 0.441148 24.7493 -18.8436 61.757
